<svg version="1.2" xmlns="http://www.w3.org/2000/svg" viewBox="0 0 482 255" width="482" height="255">
	<g id="Group 3">
		<g id="Group 4">
			<path id="Object 5" fill="#ff2e17" d="m32 111.2q0 1.5-0.6 2.5-0.6 1-1.5 1.8-0.9 0.8-1.6 1.7-0.6 0.9-0.6 2.4 0-1-0.5-1.5-0.5-0.5-1.3-0.3-0.8 0.3-2.3 1.8 0 1.3 0.5 2.3 1 2.1 3.6 2.1h-4.1v-8.5q-1.5 0-2.6-0.6-1-0.7-1.7-1.6-0.8-0.9-1.7-1.5-0.9-0.6-2.4-0.6 0.3-1.3 0.6-2.6 0.3 0.2 0.6 0.3 1.3 0.2 2.9-0.3 1.7-0.5 4.3-1.5-1.5 0-2.6-0.5-1-0.6-1.7-0.9-0.8-0.4-1.7-0.3-0.4 0.1-0.8 0.3 1-2.9 2.2-5.4 2.3-4.7 5-9 2.7-4.2 5.6-8.3 2.9-4.1 6-8.7 0-1.5-1.1-2.4-1.2-0.9-2.3-1.7-1.2-0.7-1.4-1.7-0.3-1.1 1.2-2.6l3.6 4.3v-4.3h-3.6l3.6-4.1q-2 0-3.3-0.5-1.3-0.5-1.7-1.2-0.4-0.6 1.4-2.1h3.6l4.4-4.1q-1.1 0-1.6-0.5-0.5-0.5-0.4-1.3 0.2-0.8 2-2.6h-4.4q1.6-1.5 1.3-2.4-0.3-0.9-1-1.7-0.8-0.7-1.2-1.8-0.4-1 0.9-2.5 0-1.3 1.3-1.5 1.3-0.3 2.4-0.3 1.2 0 1.7-0.3 0.5-0.2-1-1.5h12.5q0 1.3-0.6 1.5-0.7 0.3-1.4 0.3-0.8 0-1.5 0.3-0.6 0.2-0.6 1.5h4.1v-7.9q2.8 0 4.9-2.6 2-2.6-1.1-5.9 3.1-1.5 5.5-4.3 2.5-2.8 4.4-6.3 1.9-3.4 3.6-7.2 1.6-3.7 3.2-6.7 6.1 6.1 9.7 14.3 3.6 8.2 6.6 14.6v-4.4q3.4 0 3.9 2.7 0.5 2.7 0.5 5.8v-4.1q2.5 0 1.5 2-0.5 1-1.5 2.1 0 1.5 1.1 3.7 1.2 2.1 2.3 4.1 1.2 1.9 1.7 3.2 0.5 1.2-1 1.2 0 1.6 0 1.8 0 0.3 0.3-0.1 0.4-0.4 1.2-1 0.8-0.7 2.3-0.7 1.5 7.7 5.6 15.4 4.1 7.7 8.9 14.9 4.7 7.3 8.8 14.4 4.1 7 5.6 13.1 9.7 12.3 15.7 24.6 6 12.3 9.1 24.5-1.5 0-3.1 1.3-1.5 1.3-3 3-1.6 1.6-3.1 2.9-1.5 1.3-2.8 1.3-1.5-3.1-3.7-5.5-2.2-2.4-3.7-4.8-1.6-2.3-2.1-4.7-0.5-2.4 1-5.5-2.8 0-3.8 2.1-0.5 1-0.5 2-6.4-15.3-14.4-28.9-8.1-13.5-14.5-28.9-4.6 0-9.1-0.5-4.5-0.5-8.3-0.5-3.8 0-6.8 1-2.9 1-4.4 4.1-1.6-1.5-1.8-2.3-0.1-0.1-0.1-0.3-0.3 0.2-0.6 0.3-0.9 0.3-1.6-0.1-0.8-0.4-1.7-1-0.9-0.7-2.4-0.7v4.1q-1.6 0-2.6-0.6-1-0.7-1.8-1.4-0.7-0.8-1.6-1.4-0.9-0.7-2.5-0.7 1.1 1 1.6 2.1 1 2-1.6 2 0-3.1-2.4-3.6-2.4-0.5-5.5-0.5-3.3 0-3.8 0.5-0.5 0.5-0.5 3.6 0-1 0.5-1.5 0.5-0.5 1.2-0.3 0.8 0.3 2.6 1.8h-8.4q1.5 3.1 0.5 6.1-1 3.1-3 5.8-1.9 2.7-3.7 4.9-1.8 2.1-1.8 3.7 0-1.1-0.5-1.6-0.5-0.5-1.4-0.2-0.9 0.2-2.4 1.8-1.5 0-1 0.6 0.5 0.6 1.6 1 1.2 0.4 2.5 0.2 1.2-0.3 1.2-1.8zm5.4-69.5q0.3 0.7 0.3 1.6 0 0.9 0.3 1.5 0.4 0.6 2 0.6 0-1-0.5-2-0.6-0.8-1.5-1.5-0.6-0.6-1.4-0.7 0.6 0.1 0.8 0.5zm33.7 46.4q0.8-0.4 1.9-1.5-1.1 0-1.6 0.5-0.4 0.4-0.3 1zm-34.5-46.9q-0.4-0.1-1-0.1 0.5 0 1 0.1zm65-16.5q0 3.3-1.9 3.3-1.9 0-1.9-3.3zm-53.2 16.4q-3.4 0-3.9-0.4-0.5-0.4-0.5-3.2 0 2.8 0.5 5.4 0.5 2.5 3.9 2.5h12q-3.1-1.5-4.2-1.8-1.2-0.2-1.9-0.2-0.8 0-1.8-0.4-1.1-0.4-4.1-1.9zm7.9 41.7v-4.4q-1 1.3-1.5 2.3-1.1 2.1 1.5 2.1zm-32.7 20.4q0-1 0.5-2 1-2.1 3.6-2.1-1.6 0-1.8-0.1-0.3-0.1-0.3-0.5 0-0.4-0.2-1.3-0.3-0.9-1.8-2.4zm8.4 3.8q0-2.8-0.5-3.3-0.5-0.5-3.8-0.5 0 1 0.5 2 0.7 1.8 3.8 1.8zm-15.3-1.3q-0.5 1.4-0.9 2.9-0.7-0.4-0.7-1.6 0.9-0.9 1.6-1.3zm-9.5 18.2q0 0.8 0.5 1.3 0.8 1 3.1-1.3 0-1.5-0.7-2.4-0.6-0.9-1.1-1.4-1-0.5-1.8-0.5l3.6-4.1h8.4v4.1q-3.1 0-3.6-0.5-0.5-0.6-0.5-3.6-1.5 1.5-1.8 3-0.2 1.6 0.2 3.1 0.3 1.5 1 3.1 0.6 1.5 0.6 2.8-1.5 0-1.9 0.1-0.4 0.1-0.4 0.5 0 0.4-0.2 1.3-0.3 0.9-1.8 2.4h-3.6q1.3-1.5 1.5-2.5 0.3-1-0.1-1.8-0.4-0.8-0.9-1.5-0.5-0.8-0.5-2.1zm-4.4 12.4q-0.1-0.2-0.3-0.4 0.2 0 0.3 0zm-1.7-0.4q-0.3 0 0.1-0.3 0.3-0.3 0.7-0.9 0.2 0.7 0.6 1.2-1.2 0-1.4 0zm0.8-1.2q-0.1-0.4-0.1-0.8 0-1.5 0.5-2.6 0.5-1 0.5 0.5 0 1.6-0.6 2.5-0.2 0.2-0.3 0.4zm1.1 1.8q1.1 1 4.2-0.6 0 1.8-0.8 2.6-0.7 0.8-1.5 1.3-1 0.5-2.1 0.5v-4q0.1 0.1 0.2 0.2z"/>
			<path id="Object 6" fill="#2c2e35" d="m183 69.2q0.8 0 0.9-0.8 0.1-0.7 0.1-1.7 0-1 0.2-2.1 0.2-1.1 1-1.9-0.8-5.6-1-11.8-0.2-6.3-0.2-12.8 0-6.6-0.1-13.2-0.1-6.6-0.9-13h8.4q0.8 8.7 0.9 17.8 0.1 9-0.1 17.7-0.2 8.8-0.5 16.9-0.3 8.2-0.3 15.3h-2.1q0 0.8-0.1 1.6-0.1 0.8-0.7 1.4-0.6 0.6-1.9 1-1.3 0.3-3.6 0.3 0.8-0.8 0.9-1.6 0.1-0.8-0.1-1.6-0.2-0.8-0.5-1.6-0.3-0.8-0.3-1.6-0.6 0-1.1 0.3-1.1 0.5-1.1 1.8-3.9-4.7-7.9-10.2-3.9-5.4-7.8-11-4-5.5-8.1-10.9-4-5.4-8-10.1v42.2q-3 0-4.9-1-1.8-1.1-3.4-1.1v-65.6q4.7 6.4 10.2 13.4 5.4 7 11 14.4 5.5 7.3 10.9 14.8 5.4 7.5 10.2 14.7zm4.3 16.9q0-0.8 0.4-0.9 0.3-0.1 0.9-0.1 0.6 0 1.3-0.2 0.7-0.2 1.5-1v2.2q-0.8 0-1.2-0.3-0.5-0.3-0.9-0.5-0.4-0.2-0.8-0.1-0.4 0.1-1.2 0.9zm4.1-2.2h-2.1q0-1.6 0.3-1.6 0.3 0 1.8 1.6zm-38-46.5h-2.1q-0.8 0.7-0.6 1.1 0.2 0.4 0.8 0.4 0.6 0 1.2-0.4 0.7-0.4 0.7-1.1zm-10.6-10.7v2.2h2.1v-2.2zm44.6 42.5q0-1.8-0.3-2-0.3-0.3-1.9-0.3 0 1.5 1.1 2 0.5 0.3 1.1 0.3zm-6.5 4.2q1.5 0 1.5-1 0-1.1-1.5-1.1zm0 2q0.8 0 1.5-0.3 0.8-0.2 1.7-0.4 0.9-0.2 1.7-0.2 0.8 0.1 1.6 0.9 0-1.6-1.4-2.1-1.3-0.4-2.7-0.2-1.4 0.2-2.3 0.8-0.9 0.7-0.1 1.5zm-40.2 4.2q1.6 0 4.2 0.3 2.7 0.3 4.1 1.8v12.8h-8.3z"/>
			<path id="Object 7" fill="#2c2e35" d="m266.7 56.6h8.5v4.2h-8.5zm8.5-33.7q-0.8 1.6-1.6 2.5-0.9 0.9-1.9 1.5-1 0.5-2.2 1-1.2 0.5-2.8 1.3-4.7-4.8-11.2-6.9-6.5-2.1-13.4-1.9-6.9 0.2-13.5 2.7-6.7 2.6-11.6 7.3-5 4.6-7.7 11.2-2.6 6.7-1.5 15h-8.4q0-3.2 0.3-4.8 0.2-1.5 1.8-1.5-1-8.4 2.4-15.5 3.5-7.1 9.7-12.3 6.2-5.1 14.5-8 8.3-3 16.8-3.2 8.5-0.3 16.5 2.5 8 2.8 13.8 9.1zm-69.4 21.1h2l-2-2.1zm0 25.2q-3.2-1.6-3.5-3.4-0.2-1.8 1.3-5 1.6 0 1.9 1.4 0.3 1.3 0.3 2.9 1.4-1.6 2-1.9 0.5-0.2 2.1-0.2-0.8-0.8-1.6-0.6-0.7 0.2-1.3 0.6-0.6 0.4-0.9 0.6-0.3 0.2-0.3-0.6 0-0.8 0.3-1 0.3-0.1 0.7-0.1 0.3 0 0.6-0.1 0.4-0.2 0.4-1 0-0.8-0.7-1.2-0.7-0.4-1.7-0.4-1 0-2 0.4-1.1 0.4-1.9 1.2-0.5-0.5-0.8-1-0.5-1.1 0.8-1.1h8.4q0.8 4.8 2.4 8.4 1.5 3.7 3.9 6.7 2.4 2.9 5.5 5.4 3.2 2.5 7.1 4.8 0 0.8 0 0.9 0 0.1 0.2-0.1 0.2-0.2 0.7-0.5 0.5-0.3 1.3-0.3 3.9 1.6 8.8 2 4.9 0.4 9.9-0.2 5-0.6 9.4-2.1 4.5-1.5 7.6-3.9v-16.8h8.5q-0.8 2.3-0.6 4.7 0.2 2.3 0.6 4.7 0.4 2.4 0.6 4.7 0.2 2.4-0.6 4.8-0.8 2.4-3.3 4.3-2.6 2-6.1 3.5-3.6 1.6-7.7 2.8-4.2 1.2-8.2 2h-10.5q-5.5-0.8-10.8-3-5.3-2.2-9.7-4.9-4.4-2.7-7.4-5.7-3-3-3.7-5.3 0-0.8-0.4-1-0.3-0.1-0.6-0.1-0.4 0-0.7-0.1-0.3-0.2-0.3-1 1.2-1.3 1.7-0.8 0.3 0.3 0.3 0.8 0.7 0 1.2-0.3 0.5-0.3 0.9-0.7 0.4-0.4 0.8-0.8 0.5-0.3 1.3-0.3-0.8-0.8-1.9-1.2-1-0.4-2-0.4-1 0-1.7 0.4-0.6 0.4-0.6 1.2 0-0.8-0.4-0.9-0.3-0.1-0.7-0.1-0.4 0-0.7-0.2-0.4-0.1-0.4-0.9zm6.3 6.4v-2.2h-2.1q0 1.6 0.2 1.9 0.3 0.3 1.9 0.3zm4.2 6.3h-2.1q0 1.6 1.1 1.6 1 0 1-1.6zm14.7 6.3v-2.2h-2.1q0 1.6 0.3 1.9 0.2 0.3 1.8 0.3zm0 2.1q0.8 0 1.3 0.3 0.5 0.3 0.9 0.5 0.3 0.2 0.8 0.1 0.5-0.1 1.3-0.9-1.4 0-1.9-1.1-0.2-0.5-0.2-1-1.6 0-1.9 0.2-0.3 0.3-0.3 1.9z"/>
			<path id="Object 8" fill="#2c2e35" d="m334.4 11.2v6.4h-44.8v29.7q-1.5 0-3.4-1.1-1.8-1.2-5-1.2v-31.8q0-1.2 1.1-1.7 0.5-0.3 1-0.3zm-13.4 37.2q0.8 0 1.6 0 0.8 0 1.7-0.2 0.8-0.1 1.6-0.9 0 0.8-0.7 0.9-0.7 0.2-1.7 0.2-1 0-2.1 0-1.1 0.1-1.9 0.9 3.2 0 6.4 0v6.3h-34q-0.8 3.2-1 7.1-0.2 4-0.2 7.9 0 4-0.2 7.9-0.1 3.8-0.9 7 3.2 0.8 7.4 1 4.1 0.2 8.1 0.2 4 0 7.3 0.1 3.3 0.1 4.9 0.9 1.6-0.8 3.6-0.9 2-0.1 4.2-0.1 2.2 0 4.6-0.2 2.3-0.2 4.7-1v8.5h-38.2q0-0.8 0.3-1 0.3-0.1 0.5-0.1 0.2 0 0.1-0.1-0.1-0.2-0.9-1-1.6 1.6-2.9 1.9-1.4 0.3-2.8 0.1-1.4-0.2-3.1-0.4-1.6-0.2-4 0.6-0.8-4-1.2-9.7-0.4-5.7-0.4-12.1 0-6.3 0.4-12.8 0.4-6.5 1.2-12.1 11.1 1.5 21.2 1.7 7.1 0.2 14.9 0.3 0.7-0.8 1.5-0.9zm-37.6 15.9h4.2q-1.3 0-1.8-1.1-0.3-0.5-0.3-1.2h-2.1zm4.2 2.1v-2.1q-0.5 0.5-0.8 1.1-0.5 1 0.8 1zm-4.2 14.7h2.1v-1.9h-2.1zm23.3 8.6h2.3q0-0.4-0.3-1-0.5-1-2-1z"/>
			<path id="Object 9" fill="#2c2e35" d="m351.5 67.6v17.9q5 0.8 10.8 0.9 5.8 0.1 11.6-0.1 5.8-0.2 11.6-0.5 5.8-0.3 10.8-0.3 1.7 1.7 2 4.5 0.3 2.8 0.3 4.5h-56.1v-26.9zm-2.3-56.1q0.6 0.8 1.1 1.5 0.4 0.6 0.8 1.4 0.4 0.8 0.4 1.6h-6.8q1-0.8 1.5-0.9 0.5 0 0.9 0.2 0.4 0.2 0.9 0.4 0.4 0.3 1.2 0.3zm-4.5 4.5q1 0 1.1 0.7 0.1 0.6 0.1 1.3 0 0.7 0.1 0.9 0.2 0.2 1.1-0.6-0.7 0.8-1.2 1.4-0.5 0.7-0.8 1.5-0.4 0.8-0.4 1.7 1.7 0 2.4-0.4 0.7-0.4 1.1-0.8 0.4-0.4 1-0.8 0.7-0.4 2.3-0.4 0 1.9-0.3 1.9-0.2 0-2-1.9 0.8 1 1.3 2.4 0.5 1.5 0.5 2.9 0 1.5-0.5 2.5-0.5 1.1-1.3 1.1 0.8 1.7 1.3 6 0.5 4.3 0.7 9.8 0.2 5.5 0.2 11.4 0.1 5.9 0.1 11h-9v-40.3q0-1.5 1-2 0.6-0.3 1.2-0.3 0-0.8-0.3-0.6-0.3 0.2-0.8 0.6-0.5 0.4-0.8 0.6-0.3 0.2-0.3-0.6 0-1.7 0.3-1.9 0.3-0.2 0.8 0 0.5 0.2 0.8 0.4 0.3 0.2 0.3-0.6 0-0.7-0.2-1.2-0.3-0.4-0.8-0.8-0.4-0.4-1.2-0.4 1.2 0 2-0.5 0.6-0.4 0.9-1.3 0.3-1-0.7-2.7z"/>
			<path id="Object 10" fill="#2c2e35" d="m417.7 69.3q0 0.8-0.4 1.3-0.3 0.6-0.8 1-0.4 0.4-0.8 0.8-0.3 0.5-0.3 1.3 0-0.6-0.3-0.8-0.2-0.3-0.6-0.2-0.4 0.2-1.2 1 0 0.6 0.3 1.2 0.5 1 1.8 1h-2.1v-4.3q-0.8 0-1.3-0.4-0.6-0.3-1-0.8-0.4-0.4-0.8-0.8-0.5-0.3-1.3-0.3 0.2-0.7 0.4-1.3 0.1 0.1 0.3 0.1 0.6 0.1 1.4-0.1 1-0.3 2.3-0.8-0.8 0-1.3-0.3-0.6-0.2-1-0.4-0.4-0.2-0.8-0.2-0.2 0-0.5 0.2 0.6-1.5 1.2-2.8 1.2-2.5 2.6-4.7 1.4-2.2 2.9-4.3 1.5-2.1 3.1-4.5 0-0.8-0.6-1.2-0.6-0.5-1.2-0.9-0.6-0.4-0.7-0.9-0.1-0.6 0.7-1.4l1.8 2.3v-2.3h-1.8l1.8-2.1q-1 0-1.7-0.3-0.7-0.2-0.9-0.5-0.2-0.4 0.8-1.2h1.8l2.3-2.1q-0.6 0-0.8-0.3-0.3-0.2-0.2-0.6 0-0.4 1-1.3h-2.3q0.8-0.8 0.7-1.3-0.2-0.5-0.6-0.9-0.3-0.4-0.5-0.9-0.2-0.5 0.4-1.3 0-0.7 0.7-0.8 0.6-0.2 1.2-0.2 0.6 0 0.9-0.1 0.3-0.1-0.5-0.8h6.5q0 0.7-0.4 0.8-0.3 0.1-0.7 0.1-0.4 0-0.7 0.2-0.4 0.1-0.4 0.8h2.2v-4.1q1.4 0 2.5-1.4 1-1.3-0.5-3 1.5-0.8 2.8-2.3 1.3-1.4 2.3-3.2 1-1.8 1.8-3.7 0.9-1.9 1.7-3.5 3.2 3.1 5 7.4 1.9 4.2 3.5 7.5v-2.2q1.7 0 1.9 1.4 0.3 1.4 0.3 3v-2.2q1.3 0 0.8 1.1-0.3 0.5-0.8 1.1 0 0.8 0.6 1.9 0.6 1.1 1.2 2.1 0.6 1 0.9 1.7 0.2 0.6-0.6 0.6 0 0.8 0 1 0 0.1 0.2-0.1 0.2-0.2 0.6-0.5 0.4-0.4 1.2-0.4 0.8 4 2.9 8 2.2 4 4.6 7.7 2.5 3.8 4.6 7.5 2.1 3.6 2.9 6.8 5 6.4 8.2 12.7 3.1 6.4 4.7 12.7-0.8 0-1.6 0.7-0.8 0.7-1.6 1.5-0.8 0.9-1.6 1.6-0.8 0.6-1.5 0.6-0.8-1.6-1.9-2.8-1.1-1.3-1.9-2.5-0.8-1.2-1.1-2.4-0.2-1.3 0.6-2.9-1.5 0-2 1.1-0.3 0.5-0.3 1-3.3-7.9-7.5-14.9-4.2-7.1-7.5-15-2.4 0-4.7-0.3-2.3-0.3-4.3-0.3-2 0-3.5 0.6-1.5 0.5-2.3 2.1-0.8-0.8-1-1.2 0-0.1 0-0.1-0.2 0.1-0.3 0.1-0.5 0.1-0.8-0.1-0.4-0.2-0.9-0.5-0.5-0.3-1.3-0.3v2.1q-0.8 0-1.3-0.3-0.5-0.4-0.9-0.8-0.4-0.4-0.9-0.7-0.4-0.3-1.2-0.3 0.5 0.5 0.8 1 0.5 1.1-0.8 1.1 0-1.6-1.3-1.9-1.3-0.2-2.9-0.2-1.7 0-1.9 0.2-0.3 0.3-0.3 1.9 0-0.5 0.3-0.8 0.2-0.3 0.6-0.1 0.4 0.1 1.3 0.9h-4.3q0.8 1.6 0.2 3.2-0.5 1.6-1.5 3-1 1.4-1.9 2.5-0.9 1.1-0.9 1.9 0-0.5-0.3-0.8-0.3-0.3-0.7-0.1-0.5 0.1-1.3 0.9-0.8 0-0.5 0.3 0.2 0.4 0.8 0.6 0.6 0.2 1.3 0 0.7-0.1 0.7-0.9zm2.7-36q0.2 0.3 0.2 0.8 0 0.5 0.2 0.8 0.2 0.3 1 0.3 0-0.5-0.3-1-0.3-0.4-0.7-0.8-0.3-0.3-0.8-0.4 0.4 0.1 0.4 0.3zm17.5 24.1q0.4-0.3 1-0.8-0.6 0-0.8 0.2-0.2 0.3-0.2 0.6zm-17.9-24.4q-0.2 0-0.5 0 0.3 0 0.5 0zm33.7-8.5q0 1.7-1 1.7-1 0-1-1.7zm-27.5 8.5q-1.8 0-2-0.2-0.3-0.2-0.3-1.7 0 1.5 0.3 2.8 0.2 1.3 2 1.3h6.2q-1.6-0.8-2.2-0.9-0.6-0.1-1-0.1-0.4 0-0.9-0.2-0.6-0.2-2.1-1zm4.1 21.6v-2.3q-0.6 0.7-0.8 1.2-0.6 1.1 0.8 1.1zm-17 10.6q0-0.5 0.3-1.1 0.5-1 1.8-1-0.8 0-0.9-0.1-0.1-0.1-0.1-0.3 0-0.2-0.2-0.6-0.1-0.5-0.9-1.3zm4.4 2q0-1.5-0.3-1.7-0.3-0.3-2-0.3 0 0.5 0.3 1.1 0.4 0.9 2 0.9zm-8-0.7q-0.2 0.7-0.4 1.5-0.4-0.2-0.4-0.8 0.5-0.5 0.8-0.7zm-4.9 9.5q0 0.4 0.3 0.6 0.4 0.6 1.6-0.6 0-0.8-0.4-1.3-0.3-0.5-0.6-0.7-0.5-0.3-0.9-0.3l1.9-2.1h4.3v2.1q-1.5 0-1.8-0.3-0.3-0.2-0.3-1.8-0.8 0.8-0.9 1.6-0.1 0.8 0.1 1.6 0.2 0.8 0.5 1.6 0.3 0.8 0.3 1.4-0.8 0-1 0.1-0.2 0-0.2 0.2 0 0.2-0.1 0.7-0.1 0.5-0.9 1.3h-1.9q0.7-0.8 0.8-1.4 0.1-0.5-0.1-0.9-0.2-0.4-0.4-0.8-0.3-0.4-0.3-1zm-2.2 6.4q-0.1-0.1-0.2-0.2 0.1 0 0.2 0zm-1-0.2q-0.1 0 0.1-0.2 0.1-0.2 0.4-0.5 0.1 0.4 0.3 0.7-0.7 0-0.8 0zm0.5-0.7q-0.1-0.2-0.1-0.4 0-0.8 0.3-1.3 0.3-0.5 0.3 0.3 0 0.8-0.4 1.2-0.1 0.1-0.1 0.2zm0.5 0.9q0.6 0.6 2.2-0.2 0 0.9-0.4 1.3-0.4 0.4-0.8 0.7-0.5 0.2-1 0.2v-2q0 0 0 0z"/>
		</g>
		<g id="Group 12">
			<path id="Object 13" fill="#ff2e17" d="m216.7 123.3q-1.6 0-2.2 0.7-0.6 0.6-1.1 1.4-0.6 1-0.6 2 2.9 0 3.9-2 0.4-0.8 1-1.3-0.4-0.3-0.6-0.8-0.4-0.7-0.4-1.1 0-0.4 0 1.1zm3.2 4.9q-0.7 1.8-1.8 3.3-1.2 1.6-2.4 3.3-1.3 1.8-2.9 4.9h-3.8q0.8 0 1.8 0.5 2 1 2 3.6-1.5-1.5-2.1-1.8-0.7-0.3-1.2 0.3-0.5 0.5-0.5 1.5v4.1q0 1.5-0.6 1.8-0.7 0.2-1.3 0.2-0.6 0-1.3 0.3-0.6 0.2-0.6 1.8 0 3-0.5 5.6-0.5 2.6-3.4 2.6-2.5 2.5-1.5 3.5 0.5 0.6 1.5 0.6h-7.6q1.5 1.5 1.6 3 0.2 1.6-0.2 3.5-0.4 1.9-0.9 4.2-0.5 2.3-0.5 5.4h-4.1q0 3-2.5 8.1-2.4 5.2-5.2 8.2-1.5 0-1.7 0.7-0.1 0.6 0.3 1 0.4 0.4 0.9 0.1 0.5-0.2 0.5-1.8v8.2h-3.8q1.5 3.1-0.8 4.7-2.3 1.7-5.9 2.5-3.6 0.7-7.3 0.9-3.7 0.1-5.2 0.1 1.5-1.5 2.4-4.9 0.9-3.3 1.9-6.7 1.1-3.5 2.7-6.2 1.7-2.7 4.5-2.7-1.5-1.5-1.7-2.4-0.1-0.9 0.3-1.7 0.4-0.7 0.9-1.6 0.5-0.9 0.5-2.4h3.8q-2.8-3.1-0.5-6.2 2.3-3.1 8.2-6.1-1.5-1.6-1-3.6 0.5-2 1.5-4.3 1-2.4 2.2-4.5 1.1-2.2 1.1-3.7h3.9q0-1.6-0.5-1.8-0.5-0.3-0.9-0.3-0.4 0-0.3-0.2 0.1-0.3 1.7-1.8 3-6.2 6.5-13.6 3.4-7.4 7.2-15.1 3.7-7.6 7.1-15.1 3.5-7.4 6.3-13.5 2.3 0 3.3 2 0.5 1.1 0.5 2.1 1.6-1.6 3-1 1.4 0.5 2.8 1.6 1.4 1.2 2.8 2.3 1.4 1.2 2.9 1.2-2.8 6.1-5.2 10.2-2.4 4.1-2.4 10.2-1.6 0-2.2-0.6-0.7-0.6-1.2-1.4-0.5-1-0.5-2.1-2.8 0-2.8 2.1 0 2 2.8 2 0 3.1-0.6 4.9zm0.6-4.9q-1.7 0-2.8 0.8 0.2 0.2 0.5 0.4 0.8 0.4 2.3-1.2zm-3.8-20.4q1.5 0 2.8 0.6 1.3 0.7 2 1 0.8 0.4 0.7 0.2-0.1-0.3-1.7-1.8zm-11.5 45q0-3.1-0.5-3.6-0.5-0.5-3.3-0.5 0 2.8 1.8 3.6 1 0.5 2 0.5zm-11.5 8.2q2.8 0 5.2-0.5 2.5-0.6 2.5-3.6 0-1.6-0.7-1.8-0.6-0.3-1.2-0.3-0.7 0-1.3-0.2-0.7-0.3-0.7-1.8 0 3.1-1.9 4.1-1.9 1-1.9 4.1zm3.8 4.1v-4.1h-3.8q0 1 0.5 2 0.5 0.8 1.2 1.4 0.6 0.7 2.1 0.7zm-7.9 12h4.1q0-2.8-0.5-3.3-0.5-0.6-3.6-0.6zm-15.3 16.4v4.1q2.8 0 3.8-2 1-2.1 3.8-2.1-1.5-1.5-2.8-1.8-1.3-0.2-2.5 0.3-1.3 0.5-2.3 1.5zm-3.9 32.7q-1 0-2-0.5-1.8-0.7-1.8-3.5h7.7q-1.6 4.6-4.1 9.2-2.6 4.6-5.5 9.2-3 4.6-5.5 9.2-2.6 4.6-4.1 9.2-2.8 0-4.6-2.6-1.8-2.5 1-5.6-5.9-6.1-9.2-12.3-3.3-6.1-6.1-12.3 5.6-1.5 9-2.3 3.5-0.7 6.3-1.1 2.8-0.4 6.1-0.5 3.4-0.1 9-0.1-1.5 0-1.2 0.7 0.4 0.8 0.8 1.9 0.4 1.2-0.1 2.6-0.5 1.4-3.3 2.9 2.8 0 3.8-2 1-2.1 3.8-2.1zm-7.6 12.3v-4.1q-2.9 0-2.9 2.1 0 2 2.9 2zm-11.3-16.3h-15.3q-7.2-15.4-15-29.5-7.8-14-15.9-27.7-8-13.7-15.8-27.8-7.8-14-15-29.4 2.8 0 5.1-1.2 2.3-1.3 4.1-2.9 1.8-1.5 3.2-2.8 1.4-1.2 3-1.2 14.5 24.8 26.6 49.1 12 24.3 23.5 48.8 2.8 3.1 2.8 4.1 0 1-2.8 4.1 2.8 0 4.5 1.4 1.6 1.4 2.7 3.7 1 2.3 1.9 5.2 0.9 3 2.4 6.1z"/>
			<path id="Object 14" fill="#2c2e35" d="m241.7 162.1v17.9q5.1 0.8 10.8 0.9 5.8 0.2 11.6 0 5.9-0.2 11.6-0.6 5.8-0.3 10.8-0.3 1.8 1.7 2 4.5 0.3 2.8 0.3 4.5h-56.1v-26.9zm-2.2-56.1q0.5 0.8 1 1.5 0.4 0.6 0.8 1.4 0.4 0.8 0.4 1.6h-6.8q1-0.8 1.5-0.8 0.5-0.1 0.9 0.1 0.4 0.2 0.9 0.5 0.5 0.2 1.3 0.2zm-4.6 4.5q1 0 1.1 0.7 0.1 0.7 0.1 1.3 0 0.7 0.2 0.9 0.1 0.2 1-0.6-0.6 0.8-1.2 1.4-0.5 0.7-0.8 1.5-0.4 0.8-0.4 1.7 1.8 0 2.4-0.4 0.7-0.4 1.1-0.8 0.4-0.4 1.1-0.8 0.6-0.4 2.2-0.4 0 1.9-0.3 1.9-0.2 0-1.9-1.9 0.8 1 1.2 2.4 0.5 1.5 0.5 2.9 0 1.5-0.5 2.6-0.4 1-1.2 1 0.8 1.7 1.2 6.1 0.5 4.3 0.7 9.8 0.2 5.5 0.2 11.4 0.1 5.9 0.1 10.9h-9v-40.3q0-1.5 1.1-2 0.5-0.3 1.1-0.3 0-0.7-0.3-0.5-0.3 0.2-0.8 0.5-0.4 0.4-0.8 0.6-0.3 0.2-0.3-0.6 0-1.7 0.3-1.9 0.4-0.2 0.8 0 0.5 0.2 0.8 0.4 0.3 0.2 0.3-0.6 0-0.6-0.2-1.2-0.3-0.4-0.7-0.8-0.5-0.4-1.3-0.4 1.2 0 2-0.5 0.6-0.4 0.9-1.3 0.3-0.9-0.7-2.7z"/>
			<path id="Object 15" fill="#2c2e35" d="m307.9 163.8q0 0.8-0.3 1.3-0.4 0.6-0.8 1-0.5 0.4-0.8 0.8-0.4 0.5-0.4 1.3 0-0.5-0.2-0.8-0.3-0.3-0.7-0.1-0.4 0.1-1.2 0.9 0 0.7 0.3 1.2 0.5 1.1 1.8 1.1h-2.1v-4.4q-0.8 0-1.3-0.4-0.5-0.3-0.9-0.8-0.4-0.4-0.9-0.7-0.5-0.4-1.3-0.4 0.2-0.7 0.4-1.3 0.1 0.1 0.3 0.1 0.7 0.2 1.5-0.1 0.9-0.3 2.2-0.8-0.8 0-1.3-0.3-0.5-0.2-0.9-0.4-0.4-0.2-0.9-0.2-0.2 0.1-0.4 0.2 0.5-1.5 1.1-2.8 1.2-2.5 2.6-4.7 1.4-2.1 2.9-4.3 1.5-2.1 3.1-4.5 0-0.8-0.6-1.2-0.6-0.5-1.2-0.9-0.5-0.4-0.7-0.9-0.1-0.5 0.7-1.3l1.8 2.2v-2.2h-1.8l1.8-2.2q-1 0-1.7-0.2-0.6-0.3-0.8-0.6-0.2-0.4 0.7-1.2h1.8l2.3-2.1q-0.5 0-0.8-0.2-0.3-0.3-0.2-0.7 0.1-0.4 1-1.3h-2.3q0.8-0.8 0.7-1.3-0.1-0.5-0.5-0.8-0.4-0.4-0.6-1-0.2-0.5 0.4-1.3 0-0.7 0.7-0.8 0.7-0.1 1.3-0.1 0.6 0 0.8-0.2 0.3-0.1-0.5-0.8h6.5q0 0.7-0.3 0.8-0.4 0.2-0.8 0.2-0.4 0-0.7 0.1-0.3 0.1-0.3 0.8h2.1v-4.1q1.4 0 2.5-1.3 1.1-1.4-0.5-3.1 1.6-0.8 2.8-2.2 1.3-1.5 2.3-3.3 1-1.8 1.8-3.7 0.9-1.9 1.7-3.5 3.2 3.2 5 7.4 1.9 4.3 3.5 7.6v-2.3q1.7 0 2 1.4 0.2 1.4 0.2 3v-2.1q1.4 0 0.8 1-0.2 0.6-0.8 1.1 0 0.8 0.6 1.9 0.6 1.1 1.2 2.1 0.6 1 0.9 1.7 0.3 0.7-0.5 0.7 0 0.7 0 0.9 0 0.1 0.2-0.1 0.2-0.2 0.5-0.5 0.4-0.3 1.2-0.3 0.8 3.9 3 7.9 2.1 4 4.5 7.8 2.5 3.7 4.6 7.4 2.1 3.6 2.9 6.8 5.1 6.4 8.2 12.7 3.1 6.4 4.7 12.8-0.8 0-1.6 0.6-0.8 0.7-1.6 1.6-0.8 0.8-1.6 1.5-0.8 0.6-1.4 0.6-0.8-1.5-2-2.8-1.1-1.3-1.9-2.5-0.8-1.2-1.1-2.4-0.2-1.3 0.6-2.9-1.5 0-2 1.1-0.3 0.5-0.3 1.1-3.3-8-7.5-15-4.1-7.1-7.5-15-2.3 0-4.7-0.3-2.3-0.2-4.3-0.2-2 0-3.5 0.5-1.5 0.5-2.3 2.1-0.8-0.8-0.9-1.2-0.1 0-0.1-0.1-0.1 0.1-0.3 0.1-0.4 0.2-0.8 0-0.4-0.2-0.9-0.6-0.5-0.3-1.2-0.3v2.1q-0.8 0-1.4-0.3-0.5-0.3-0.9-0.7-0.4-0.4-0.9-0.8-0.4-0.3-1.2-0.3 0.5 0.5 0.8 1.1 0.5 1-0.8 1 0-1.6-1.3-1.8-1.2-0.3-2.8-0.3-1.8 0-2 0.3-0.3 0.2-0.3 1.8 0-0.5 0.3-0.8 0.2-0.2 0.6-0.1 0.4 0.1 1.4 0.9h-4.4q0.8 1.6 0.3 3.2-0.6 1.6-1.6 3-1 1.4-1.9 2.5-0.9 1.1-0.9 1.9 0-0.5-0.3-0.8-0.2-0.2-0.7-0.1-0.5 0.1-1.3 0.9-0.8 0-0.5 0.4 0.3 0.3 0.9 0.5 0.6 0.2 1.2 0.1 0.7-0.2 0.7-1zm2.8-36q0.1 0.4 0.1 0.8 0 0.5 0.2 0.8 0.2 0.4 1 0.4 0-0.6-0.3-1.1-0.2-0.4-0.7-0.8-0.3-0.3-0.8-0.4 0.4 0.1 0.5 0.3zm17.4 24.1q0.4-0.2 1-0.8-0.5 0-0.8 0.3-0.2 0.2-0.2 0.5zm-17.9-24.4q-0.2 0-0.5 0 0.3 0 0.5 0zm33.7-8.5q0 1.7-1 1.7-0.9 0-0.9-1.7zm-27.6 8.5q-1.7 0-2-0.2-0.3-0.2-0.3-1.7 0 1.5 0.3 2.8 0.3 1.3 2 1.4h6.2q-1.6-0.8-2.2-1-0.6-0.1-1-0.1-0.4 0-0.9-0.2-0.5-0.2-2.1-1zm4.1 21.6v-2.2q-0.5 0.6-0.8 1.1-0.5 1.1 0.8 1.1zm-17 10.6q0-0.5 0.3-1 0.5-1.1 1.8-1.1-0.8 0-0.9-0.1-0.1 0-0.1-0.2 0-0.2-0.2-0.7-0.1-0.5-0.9-1.3zm4.4 2q0-1.4-0.3-1.7-0.2-0.3-2-0.3 0 0.6 0.3 1.1 0.4 0.9 2 0.9zm-7.9-0.7q-0.3 0.8-0.5 1.5-0.4-0.2-0.4-0.8 0.5-0.4 0.9-0.7zm-5 9.5q0 0.4 0.3 0.6 0.4 0.6 1.6-0.6 0-0.8-0.3-1.3-0.4-0.4-0.6-0.7-0.6-0.3-1-0.3l1.9-2.1h4.4v2.1q-1.6 0-1.9-0.2-0.3-0.3-0.3-1.9-0.8 0.8-0.9 1.6-0.1 0.8 0.1 1.6 0.2 0.8 0.5 1.6 0.3 0.8 0.3 1.4-0.8 0-1 0.1-0.1 0.1-0.2 0.3 0.1 0.2-0.1 0.6-0.1 0.5-0.9 1.3h-1.9q0.7-0.8 0.8-1.3 0.2-0.6 0-1-0.2-0.4-0.5-0.8-0.3-0.4-0.3-1zm-2.2 6.4q-0.1-0.1-0.2-0.2 0.1 0 0.2 0zm-0.9-0.2q-0.2 0 0-0.2 0.2-0.1 0.4-0.4 0.1 0.3 0.3 0.6-0.6 0-0.7 0zm0.4-0.6q-0.1-0.2-0.1-0.5 0-0.8 0.3-1.3 0.3-0.5 0.3 0.3 0 0.8-0.4 1.2 0 0.2-0.1 0.3zm0.5 0.9q0.6 0.5 2.2-0.3 0 0.9-0.4 1.3-0.4 0.4-0.8 0.7-0.5 0.3-1 0.3v-2.1q0 0 0 0.1z"/>
			<path id="Object 16" fill="#2c2e35" d="m385.6 136.4h4.1q0-0.8 0-1.9 0-1-0.2-2-0.2-1-0.6-1.7-0.4-0.7-1.2-0.7 0.8 0 1.5-1.6 0.6-1.7 0.8-3.6 0.2-1.9-0.2-3.6-0.5-1.6-2.1-1.6 0.8-0.8 1.2-2.2 0.4-1.4 0.6-3.1 0.2-1.8 0.2-3.6 0-1.9 0-3.5 15.6-1.5 27.4 1.5 11.8 3.1 18.1 10.9 0.8 0 0.9-0.4 0.1-0.3 0.1-0.6 0-0.4 0.2-0.7 0.2-0.3 1-0.3 1.3 0 0.8 1-0.3 0.6-0.8 1 0 0.8 0.7 1.6 0.6 0.8 1.6 1.6 1 0.8 2 1.5 1 0.8 1.8 1.6h2.1q0 0.8-0.3 1.2-0.3 0.3-0.7 0.6-0.6 0.2-1.1 0.2 3.2 4.8 4.5 9.9 1.3 5.1-0.2 12.8 0 0.8 0.3 1.1 0.3 0.4 0.7 0.6 0.5 0.3 1.1 0.3h-2.1v2.2q0 3.1-1 5.8-1 2.7-2.4 5-1.4 2.4-2.8 4.3-1.4 1.9-2.2 3.5-0.8 0-1.2 0.3-0.4 0.4-0.8 0.8-0.4 0.4-0.9 0.7-0.5 0.3-1.3 0.3v2.1q-0.8 0-1-0.3-0.1-0.3-0.3-0.9-0.2-0.6-0.7-1.4-0.6-0.8-2.2-1.6h2.2q-0.8-0.8-1.6-0.6-0.8 0.2-1.5 0.6-0.8 0.4-1.6 0.6-0.8 0.2-1.6-0.6 0 1.6 0.3 2.9 0.3 1.3 1.9 1.3 0-1.5 0.2-2.1 0.3-0.5 1.7-2.1 0 0.5 0.3 1.1 0.5 1 1.9 1-0.8 0.8-1 1.3-0.1 0.4 0.1 0.8 0.2 0.4 0.5 0.9 0.4 0.5 0.4 1.3-1.6 0-2.2-0.3-0.5-0.3-1.9-1.9 0.5 0.7 0.8 1.4 0.5 1.4-0.8 2.8-0.8 0.7-2 0.9-1.1 0.1-2.3 0.1-1.2 0-2.2 0.1-1.1 0.2-1.9 1h-2.1q-1.5 1.4-0.5 1.7 1 0.3 2.6 0.3-1.6 1.7-4 1.7-2.5 0-4.1-1.7v2.2q-2.4 0.8-5.3 0.9-3 0-6.1-0.2-3.2-0.2-6.1-0.4-3-0.3-5.4-0.3 0-4.8-0.3-9.2-0.2-3.6-1.2-6.3 0.3-0.7 0.4-1.7 0-1.7 0-3.7 0-1.9 0.2-3.7 0.1-1.8 0.9-2.6-0.8-0.8-1.2-0.8-0.4-0.1-0.8 0.1-0.4 0.2-0.9 0.5-0.4 0.2-1.2 0.2 0.8-0.8 0.8-0.8 0.1-0.1-0.1-0.1-0.2 0-0.5-0.1-0.2-0.2-0.2-0.9 0.8-0.8 1.4-1.6 0.7-0.8 0.9-1.8 0.2-1-0.3-2.2-0.1-0.3-0.2-0.5 0.1-0.2 0.3-0.3h-0.5q-0.5-0.9-1.6-2-0.8 0.8-2.3 0.5-1.6-0.2-2.6-1-1-0.7-0.6-1.6 0.3-1 3.5-1.7v1.9q1.2 0 1.7-0.9 0.3-0.5 0.3-1 0.8-0.8 1.2-0.6 0.4 0.2 0.6 0.8 0.3 0.7 0.3 1.7 1.3-1.3 0.8-2.7-0.3-0.7-0.8-1.4h2q0-0.5-0.3-1-0.5-1.1-1.7-1.1 0-1.6 1.3-1.8 1.2-0.3 2.9-0.3 0-0.8-0.4-0.9-0.4 0-1 0-0.5 0-1.3-0.2-0.7-0.1-1.5-0.9v2q-0.8 0-0.9-0.3-0.2-0.2-0.2-0.4 0-0.2-0.1-0.2-0.1 0.1-0.9 0.9 0.8-1.6 0.6-2.5-0.2-0.8-0.8-1.4-0.6-0.5-1.2-1-0.6-0.4-0.6-1.2 1.4 0 1.7 0.3 0.3 0.2 0.3 1.7zm2.6 36.3q-0.2 0.5-0.5 0.8v-2q0.3 0.6 0.5 1.2zm-4.6-30.1h2q0 0.8-0.6 1.2-0.6 0.4-1.2 0.4-0.6 0-0.8-0.4-0.2-0.4 0.6-1.2zm68.3 8.1v2h-2q0.4 0 0.9-0.3 0.4-0.2 0.7-0.6 0.4-0.3 0.4-1.1zm-64.7 2q0.1 0.1 0.2 0.3-1.3 1.4-1.8 1.4-0.6 0-2-1.7zm-1.7 4.2q-0.8 0-0.8 0.1-0.1 0.1 0.1 0.3 0.2 0.2 0.5 0.6 0.2 0.4 0.2 1.2-1.4-0.1-1.9-0.3-0.6-0.3-2.2-1.9zm62.2 10.5q0 1.5-1.3 1.7-1.3 0.3-2.9 0.3 0-1.5 1.3-1.7 1.3-0.3 2.9-0.3zm0 4.1h2.1q0 0.5-0.2 1.1-0.6 0.9-1.9 0.9zm0-57.9q1.3 1.3 0.8 2.7-0.3 0.7-0.8 1.4h-2.1q0-1.6 0.3-2.9 0.2-1.2 1.8-1.2zm-53.8 26.9h2.1v-2q0 0.5-0.3 1-0.5 1-1.8 1zm41.2 0q0.8 0.8 2.3 1.2 1.4 0.4 3 0.4 1.6 0 3-0.4 1.4-0.4 2.2-1.2-0.8 0-2.2-0.3-1.4-0.3-3-0.5-1.6-0.2-3-0.1-1.5 0.1-2.3 0.9zm8.4 18.5q0-1.6-0.3-1.8-0.3-0.3-1.7-0.3 0 1.6 0.2 1.9 0.3 0.2 1.8 0.2zm-17.7 12.2q0 0-0.1 0 0.4 0.3 1.2 0.3-0.5 0-1.1-0.3zm-0.1 0q-0.2-0.2-0.4-0.4 0.1 0.2 0.4 0.4 0 0 0 0zm-0.4-0.4q-0.4-0.5-0.4-1.4-0.8 0-1 0.3 0.1 0 0.1 0 0.5 0.3 0.9 0.7 0.2 0.2 0.4 0.4zm-2.6-1.4v4.1q0.7-0.8 0.9-1.5 0.1-0.8 0.1-1.4 0-0.6 0.2-0.9 0 0 0 0-0.5-0.3-1.2-0.3zm-8 6.2q-0.5-0.7-1.1-1.3-0.4-0.7-0.7-1.3-0.3-0.7-0.3-1.5 0 0.8 0 1.8 0 1 0.2 1.8 0.2 0.8 0.6 1 0.5 0.3 1.3-0.5zm-14.6 0q0.8 0 1.2 0.3 0.4 0.4 0.6 0.6 0.2 0.2 0.2 0 0-0.1 0-0.9 0-1.3-1.1-0.8-0.5 0.3-0.9 0.8zm4.3 4.3l1-1.2q-0.4 0.1-0.8 0.1-0.6 0-0.8 0.1-0.2 0.2 0.6 1zm1-1.2q0.2 0 0.3 0 0.6-0.2 0.6-1zm15.3 3.1h2q0-1.5-0.4-2-0.3-0.5-0.6-0.3-0.3 0.2-0.7 0.9-0.3 0.7-0.3 1.4zm-2.1 0q0-1.4-0.3-1.7-0.3-0.2-1.7-0.2 0 1.3 0.9 1.7 0.5 0.2 1.1 0.2zm4.1 0h2.2q0-0.3-0.2-0.9-0.6-1-2-1zm-20.6 1.7q0.1 0 0.2 0.1 0.1 0 0.1 0-0.1 0.1-0.3 0.3zm1.6-0.3q0.8 0.2 1.4 0.6 0.6 0.4 0.9 0.6 0.4 0.2 0.4-0.6-1.5-1.5-2-1.8-0.5-0.3-2.3-0.3v1.8q-0.7-0.1-1.3 0.3-0.7 0.4-0.7 2h4.3q0-0.8-0.7-1.4-0.6-0.6-1.3-0.8 0.7-0.5 1.3-0.4zm4.8 0.6q0 0.6 0.3 1.1 0.4 0.9 1.7 0.9 0.8 0 0.6-0.3-0.2-0.3-0.6-0.7-0.4-0.3-0.6-0.6-0.2-0.4 0.6-0.4v-2.1h-2zm4.1 2h4q0-0.7-0.3-1-0.4-0.4-0.6-0.7-0.6-0.3-1-0.3-0.5 0-1 0.3-1.1 0.5-1.1 1.7zm-14.6 0v-2h-2q0 0.6 0.3 1.1 0.4 0.9 1.7 0.9zm39.4-74.4h2q-0.7 0.6-1.3 1.1-1.5 0.9-3 0.9 0-1.2 1.1-1.7 0.5-0.3 1.2-0.3zm-53.8 6.1h2q-0.8 0.8-1 1.6-0.1 0.7-0.1 1.3 0 0.6-0.1 1 0 0.4-0.8 0.4 0.8-0.8 0.8-1.4 0.1-0.5-0.1-0.9-0.2-0.4-0.5-0.8-0.2-0.4-0.2-1.2z"/>
			<path id="Object 17" fill="#2c2e35" d="m464.9 107.3v52.4h-8.4v-52.4q0-0.8 1-0.8 1-0.1 2.4 0.1 1.4 0.2 2.8 0.5 1.4 0.2 2.2 0.2zm0 54.5v27.2h-8.4v-27.2z"/>
		</g>
	</g>
</svg>
