<?xml version="1.0" encoding="utf-8"?>
<svg version="1.1" id="Layer_1" xmlns="http://www.w3.org/2000/svg" xmlns:xlink="http://www.w3.org/1999/xlink" x="0px" y="0px"
	 viewBox="0 0 48 48" style="enable-background:new 0 0 48 48;" xml:space="preserve">
<style type="text/css">
	.st3{fill:none;stroke:#ff2e17;stroke-width:3;stroke-linecap:round;stroke-linejoin:round;stroke-miterlimit:10;}
	.st6{fill:none;stroke:#ff2e17;stroke-width:3;stroke-miterlimit:10;}
	.st7{fill:#ff2e17;}
</style>
<path class="st3" d="M41.5,21.1v-4.6c0-5.5-4.5-10-10-10h-15c-5.5,0-10,4.5-10,10v3"/>
<path class="st3" d="M6.5,25.6v5.9c0,5.5,4.5,10,10,10h15c5.5,0,10-4.5,10-10v-4.6"/>
<path class="st6" d="M24,15.5c-4.7,0-8.5,3.8-8.5,8.5s3.8,8.5,8.5,8.5s8.5-3.8,8.5-8.5S28.7,15.5,24,15.5z"/>
<path class="st7" d="M34,12c-1.1,0-2,0.9-2,2s0.9,2,2,2s2-0.9,2-2S35.1,12,34,12z"/>
</svg>
